<?xml version="1.0" encoding="UTF-8" standalone="no"?> <svg width="64" height="64" viewBox="0 0 64 64" fill="none" xmlns="http://www.w3.org/2000/svg">
<path d="M52 22C49.6947 21.9996 47.46 22.7956 45.6742 24.2534C43.8884 25.7112 42.6611 27.7413 42.2 30H24C21.6537 29.9991 19.3825 29.1732 17.5837 27.6669C15.7848 26.1605 14.5729 24.0696 14.16 21.76C16.3825 21.2684 18.3707 20.0332 19.7962 18.2586C21.2217 16.484 21.9991 14.2762 22 12C21.45 -1.26998 2.55 -1.25998 2 12C1.99953 14.3053 2.79557 16.54 4.25339 18.3258C5.71121 20.1117 7.74127 21.339 10 21.8V42.2C7.74127 42.6611 5.71121 43.8884 4.25339 45.6742C2.79557 47.46 1.99953 49.6947 2 52C2.55 65.27 21.45 65.26 22 52C22.0005 49.6947 21.2044 47.46 19.7466 45.6742C18.2888 43.8884 16.2587 42.6611 14 42.2V29.79C15.3028 31.1219 16.8584 32.1802 18.5756 32.9032C20.2927 33.6261 22.1369 33.999 24 34H42.2C44.89 45.66 61.66 44.07 62 32C62 29.3479 60.9464 26.8043 59.0711 24.929C57.1957 23.0536 54.6522 22 52 22Z" fill="black"/>
</svg>
